# xmcd
#
# Track frame offsets: 
#        150
#        46576
#        90348
#        123159
#        136729
#        192776
#        216573
#        241641
#
# Disc length: 3980 seconds
#
# Revision: 1
# Processed by: cddbd v1.5.2PL0 Copyright (c) Steve Scherf et al.
# Submitted via: ExactAudioCopyFreeDBPlugin 1.0
#
DISCID=5c0f8a08
DTITLE=Nouvelle Cuisine - Ultimate Sentences
DYEAR=1997
DGENRE=Jazz
TTITLE0=Ultimate Sentences
TTITLE1=City Song
TTITLE2=Home
TTITLE3=Igor
TTITLE4=Die Launen Des Caiptan
TTITLE5=Norden
TTITLE6=Drumming N.C.
TTITLE7=Entgleist
EXTD=
EXTT0=
EXTT1=
EXTT2=
EXTT3=
EXTT4=
EXTT5=
EXTT6=
EXTT7=
PLAYORDER=
